<?xml version="1.0" encoding="utf-8"?>
<svg version="1.1" xmlns:xlink="http://www.w3.org/1999/xlink" width="12px" height="12px" viewBox="198 263.5  12 12" xmlns="http://www.w3.org/2000/svg">
  <path d="M 204 263.5  C 207.36 263.5  210 266.14  210 269.5  C 210 272.86  207.36 275.5  204 275.5  C 200.64 275.5  198 272.86  198 269.5  C 198 266.14  200.64 263.5  204 263.5  Z " fill-rule="nonzero" fill="#ffffff" stroke="none" />
  <path d="M 204 264  C 207.08 264  209.5 266.42  209.5 269.5  C 209.5 272.58  207.08 275  204 275  C 200.92 275  198.5 272.58  198.5 269.5  C 198.5 266.42  200.92 264  204 264  Z " stroke-width="1" stroke="#797979" fill="none" />
  <path d="M 204 272.5  C 202.32 272.5  201 271.18  201 269.5  C 201 267.82  202.32 266.5  204 266.5  C 205.68 266.5  207 267.82  207 269.5  C 207 271.18  205.68 272.5  204 272.5  " fill-rule="nonzero" fill="#797979" stroke="none" />
</svg>