<?xml version="1.0" encoding="utf-8"?>
<svg version="1.1" xmlns:xlink="http://www.w3.org/1999/xlink" width="12px" height="12px" viewBox="307 304.5  12 12" xmlns="http://www.w3.org/2000/svg">
  <path d="M 313 304.5  C 316.36 304.5  319 307.14  319 310.5  C 319 313.86  316.36 316.5  313 316.5  C 309.64 316.5  307 313.86  307 310.5  C 307 307.14  309.64 304.5  313 304.5  Z " fill-rule="nonzero" fill="#ffffff" stroke="none" />
  <path d="M 313 305  C 316.08 305  318.5 307.42  318.5 310.5  C 318.5 313.58  316.08 316  313 316  C 309.92 316  307.5 313.58  307.5 310.5  C 307.5 307.42  309.92 305  313 305  Z " stroke-width="1" stroke="#797979" fill="none" />
  <path d="M 313 313.5  C 311.32 313.5  310 312.18  310 310.5  C 310 308.82  311.32 307.5  313 307.5  C 314.68 307.5  316 308.82  316 310.5  C 316 312.18  314.68 313.5  313 313.5  " fill-rule="nonzero" fill="#797979" stroke="none" />
</svg>