<?xml version="1.0" encoding="utf-8"?>
<svg version="1.1" xmlns:xlink="http://www.w3.org/1999/xlink" width="16px" height="28px" xmlns="http://www.w3.org/2000/svg">
  <g transform="matrix(1 0 0 1 -63 -255 )">
    <path d="M 15.7250859106529 1.68336673346693  C 15.9083619702176 1.87040748162992  16 2.08550434201736  16 2.32865731462926  C 16 2.57181028724115  15.9083619702176 2.78690714762859  15.7250859106529 2.97394789579158  L 4.92096219931272 14  L 15.7250859106529 25.0260521042084  C 15.9083619702176 25.2130928523714  16 25.4281897127589  16 25.6713426853707  C 16 25.9144956579826  15.9083619702176 26.1295925183701  15.7250859106529 26.3166332665331  L 14.3505154639175 27.7194388777555  C 14.1672394043528 27.9064796259185  13.9564719358534 28  13.7182130584192 28  C 13.4799541809851 28  13.2691867124857 27.9064796259185  13.085910652921 27.7194388777555  L 0.274914089347079 14.6452905811623  C 0.0916380297823597 14.4582498329993  0 14.2431529726119  0 14  C 0 13.7568470273881  0.0916380297823597 13.5417501670007  0.274914089347079 13.3547094188377  L 13.085910652921 0.280561122244489  C 13.2691867124857 0.0935203740814954  13.4799541809851 0  13.7182130584192 0  C 13.9564719358534 0  14.1672394043528 0.0935203740814954  14.3505154639175 0.280561122244489  L 15.7250859106529 1.68336673346693  Z " fill-rule="nonzero" fill="#ffffff" stroke="none" transform="matrix(1 0 0 1 63 255 )" />
  </g>
</svg>