<?xml version="1.0" encoding="utf-8"?>
<svg version="1.1" xmlns:xlink="http://www.w3.org/1999/xlink" width="13px" height="13px" viewBox="10 36  13 13" xmlns="http://www.w3.org/2000/svg">
  <path d="M 10.5 38  A 1.5 1.5 0 0 1 12 36.5 L 21 36.5  A 1.5 1.5 0 0 1 22.5 38 L 22.5 47  A 1.5 1.5 0 0 1 21 48.5 L 12 48.5  A 1.5 1.5 0 0 1 10.5 47 L 10.5 38  Z " fill-rule="nonzero" fill="#ffffff" stroke="none" />
  <path d="M 10.5 38  A 1.5 1.5 0 0 1 12 36.5 L 21 36.5  A 1.5 1.5 0 0 1 22.5 38 L 22.5 47  A 1.5 1.5 0 0 1 21 48.5 L 12 48.5  A 1.5 1.5 0 0 1 10.5 47 L 10.5 38  Z " stroke-width="1" stroke="#8c8c8c" fill="none" />
</svg>